<?xml version="1.0" encoding="UTF-8" standalone="no"?>
<!-- Created with Inkscape (http://www.inkscape.org/) -->

<svg
   version="1.1"
   id="svg2"
   width="960"
   height="468"
   viewBox="0 0 960 468"
   xmlns="http://www.w3.org/2000/svg"
   xmlns:svg="http://www.w3.org/2000/svg">
  <defs
     id="defs6">
    <clipPath
       clipPathUnits="userSpaceOnUse"
       id="clipPath18">
      <path
         d="M 0,0 H 1031.76 V 728.52 H 0 Z"
         id="path16" />
    </clipPath>
  </defs>
  <g
     id="g8"
     transform="matrix(1.3333333,0,0,-1.3333333,0,468)">
    <g
       id="g10"
       transform="translate(-49,-325)">
      <g
         id="g12">
        <g
           id="g14"
           clip-path="url(#clipPath18)">
          <g
             id="g20"
             transform="matrix(0.75,0,0,-0.75,0,728.52002)">
            <g
               id="g22">
              <path
                 d="m 124,127.04 h 56.32001 v 27.35999 H 124 Z"
                 style="fill:#d9d9d9;fill-opacity:1;fill-rule:nonzero;stroke:none"
                 id="path24" />
            </g>
            <g
               id="g26">
              <path
                 d="m 124,154.24 h 112.48 v 27.36001 H 124 Z"
                 style="fill:#d9d9d9;fill-opacity:1;fill-rule:nonzero;stroke:none"
                 id="path28" />
            </g>
            <g
               id="g30">
              <path
                 d="M 124,181.44 H 292.64001 V 208.8 H 124 Z"
                 style="fill:#d9d9d9;fill-opacity:1;fill-rule:nonzero;stroke:none"
                 id="path32" />
            </g>
            <g
               id="g34">
              <path
                 d="M 124,208.64 H 348.79999 V 236 H 124 Z"
                 style="fill:#d9d9d9;fill-opacity:1;fill-rule:nonzero;stroke:none"
                 id="path36" />
            </g>
            <g
               id="g38">
              <path
                 d="m 124,235.84 h 280.95999 v 27.36001 H 124 Z"
                 style="fill:#d9d9d9;fill-opacity:1;fill-rule:nonzero;stroke:none"
                 id="path40" />
            </g>
            <g
               id="g42">
              <path
                 d="m 124,263.04001 h 337.12 v 27.35998 H 124 Z"
                 style="fill:#d9d9d9;fill-opacity:1;fill-rule:nonzero;stroke:none"
                 id="path44" />
            </g>
            <g
               id="g46">
              <path
                 d="m 124,290.23999 h 393.28003 v 27.36002 H 124 Z"
                 style="fill:#d9d9d9;fill-opacity:1;fill-rule:nonzero;stroke:none"
                 id="path48" />
            </g>
            <g
               id="g50">
              <path
                 d="m 124,317.44 h 449.44 v 27.35999 H 124 Z"
                 style="fill:#d9d9d9;fill-opacity:1;fill-rule:nonzero;stroke:none"
                 id="path52" />
            </g>
            <g
               id="g54">
              <path
                 d="M 124,344.64001 H 629.59998 V 372 H 124 Z"
                 style="fill:#d9d9d9;fill-opacity:1;fill-rule:nonzero;stroke:none"
                 id="path56" />
            </g>
            <g
               id="g58">
              <path
                 d="m 124,371.84 h 561.76001 v 27.36001 H 124 Z"
                 style="fill:#d9d9d9;fill-opacity:1;fill-rule:nonzero;stroke:none"
                 id="path60" />
            </g>
            <g
               id="g62">
              <path
                 d="m 124,399.04001 h 617.91998 v 27.35998 H 124 Z"
                 style="fill:#d9d9d9;fill-opacity:1;fill-rule:nonzero;stroke:none"
                 id="path64" />
            </g>
            <g
               id="g66">
              <path
                 d="m 124,426.23999 h 674.08002 v 27.36002 H 124 Z"
                 style="fill:#d9d9d9;fill-opacity:1;fill-rule:nonzero;stroke:none"
                 id="path68" />
            </g>
            <g
               id="g70">
              <path
                 d="m 124,453.44 h 730.23999 v 27.35999 H 124 Z"
                 style="fill:#d9d9d9;fill-opacity:1;fill-rule:nonzero;stroke:none"
                 id="path72" />
            </g>
            <g
               id="g74">
              <path
                 d="M 124,480.64001 H 910.40002 V 508 H 124 Z"
                 style="fill:#d9d9d9;fill-opacity:1;fill-rule:nonzero;stroke:none"
                 id="path76" />
            </g>
            <g
               id="g78">
              <path
                 d="m 124,507.84 h 842.56 v 27.36001 H 124 Z"
                 style="fill:#d9d9d9;fill-opacity:1;fill-rule:nonzero;stroke:none"
                 id="path80" />
            </g>
            <g
               id="g82">
              <text
                 xml:space="preserve"
                 transform="translate(135.84,92.800003)"
                 style="font-variant:normal;font-weight:normal;font-size:19.0386px;font-family:F1;-inkscape-font-specification:F1;writing-mode:lr-tb;fill:#000000;fill-opacity:1;fill-rule:nonzero;stroke:none"
                 id="text86"><tspan
                   x="0 9.5193005 19.228987 23.988638 56.163872 65.683174 75.39286 80.152512 112.32774 121.84705 131.55673 136.31638 168.49162 178.01093 187.72061 192.48026 224.65549 234.17479 243.88448 248.64413 280.81937 290.33865 300.04834 304.80801 336.98325 346.50253 356.21222 360.97186 393.14713 402.66641 412.3761 417.13574 449.31097 458.83029 468.53998 473.29962 505.47485 514.99414 524.70386 529.4635 561.63873 571.15802 580.86774 585.62738 617.80261 627.3219 637.03162 641.79126 673.96649 683.48578 693.19543 697.95514 730.13037 739.64966 749.35931 754.11896 786.29425 795.81354 805.33282 810.28284 842.45807 851.97742 861.4967 866.44672"
                   y="0"
                   id="tspan84">x1,1x1,2x1,3x1,4x2,1x2,2x2,3x2,4x3,1x3,2x3,3x3,4x4,1x4,2x4,3x4,4</tspan></text>
            </g>
            <g
               id="g88">
              <text
                 xml:space="preserve"
                 transform="translate(79.68,120)"
                 style="font-variant:normal;font-weight:normal;font-size:19.0386px;font-family:F1;-inkscape-font-specification:F1;writing-mode:lr-tb;fill:#000000;fill-opacity:1;fill-rule:nonzero;stroke:none"
                 id="text92"><tspan
                   x="0 9.5193005 19.228987 23.988638 336.98325 346.50253 356.21222 360.97186 449.31097 458.83029 468.53998 473.29962 561.63873 571.15802 580.86774 585.62738 673.96649 683.48578 693.19543 697.95514 786.29425 795.81354 805.52319 810.28284 898.62195 908.1413 917.66058 922.6106"
                   y="0"
                   id="tspan90">x1,1d1,2d1,2d1,3d1,3d1,4d1,4</tspan></text>
            </g>
            <g
               id="g94">
              <text
                 xml:space="preserve"
                 transform="translate(79.68,147.2)"
                 style="font-variant:normal;font-weight:normal;font-size:19.0386px;font-family:F1;-inkscape-font-specification:F1;writing-mode:lr-tb;fill:#000000;fill-opacity:1;fill-rule:nonzero;stroke:none"
                 id="text98"><tspan
                   x="0 9.5193005 19.228987 23.988638 280.81937 290.33865 300.04834 304.80801 393.14713 402.66641 412.3761 417.13574 505.47485 514.99414 524.70386 529.4635 617.80261 627.3219 637.03162 641.79126 730.13037 739.64966 749.35931 754.11896 842.45807 851.97742 861.4967 866.44672"
                   y="0"
                   id="tspan96">x1,2d1,2d1,2d1,3d1,3d1,4d1,4</tspan></text>
            </g>
            <g
               id="g100">
              <text
                 xml:space="preserve"
                 transform="translate(79.68,174.39999)"
                 style="font-variant:normal;font-weight:normal;font-size:19.0386px;font-family:F1;-inkscape-font-specification:F1;writing-mode:lr-tb;fill:#000000;fill-opacity:1;fill-rule:nonzero;stroke:none"
                 id="text104"><tspan
                   x="0 9.5193005 19.228987 23.988638 336.98325 346.50253 356.21222 360.97186 449.31097 458.83029 468.53998 473.29962 561.63873 571.15802 580.86774 585.62738 673.96649 683.48578 693.19543 697.95514 786.29425 795.81354 805.52319 810.28284 898.62195 908.1413 917.66058 922.6106"
                   y="0"
                   id="tspan102">x1,3d1,2d1,2d1,3d1,3d1,4d1,4</tspan></text>
            </g>
            <g
               id="g106">
              <text
                 xml:space="preserve"
                 transform="translate(79.68,201.60001)"
                 style="font-variant:normal;font-weight:normal;font-size:19.0386px;font-family:F1;-inkscape-font-specification:F1;writing-mode:lr-tb;fill:#000000;fill-opacity:1;fill-rule:nonzero;stroke:none"
                 id="text110"><tspan
                   x="0 9.5193005 19.228987 23.988638 280.81937 290.33865 300.04834 304.80801 393.14713 402.66641 412.3761 417.13574 505.47485 514.99414 524.70386 529.4635 617.80261 627.3219 637.03162 641.79126 730.13037 739.64966 749.35931 754.11896 842.45807 851.97742 861.4967 866.44672"
                   y="0"
                   id="tspan108">x1,4d1,2d1,2d1,3d1,3d1,4d1,4</tspan></text>
            </g>
            <g
               id="g112">
              <text
                 xml:space="preserve"
                 transform="translate(79.68,228.8)"
                 style="font-variant:normal;font-weight:normal;font-size:19.0386px;font-family:F1;-inkscape-font-specification:F1;writing-mode:lr-tb;fill:#000000;fill-opacity:1;fill-rule:nonzero;stroke:none"
                 id="text116"><tspan
                   x="0 9.5193005 19.228987 23.988638 561.63873 571.15802 580.86774 585.62738 673.96649 683.48578 693.19543 697.95514 786.29425 795.81354 805.52319 810.28284 898.62195 908.1413 917.66058 922.6106"
                   y="0"
                   id="tspan114">x2,1d2,3d2,3d2,4d2,4</tspan></text>
            </g>
            <g
               id="g118">
              <text
                 xml:space="preserve"
                 transform="translate(79.68,256)"
                 style="font-variant:normal;font-weight:normal;font-size:19.0386px;font-family:F1;-inkscape-font-specification:F1;writing-mode:lr-tb;fill:#000000;fill-opacity:1;fill-rule:nonzero;stroke:none"
                 id="text122"><tspan
                   x="0 9.5193005 19.228987 23.988638 505.47485 514.99414 524.70386 529.4635 617.80261 627.3219 637.03162 641.79126 730.13037 739.64966 749.35931 754.11896 842.45807 851.97742 861.68707 866.44672"
                   y="0"
                   id="tspan120">x2,2d2,3d2,3d2,4d2,4</tspan></text>
            </g>
            <g
               id="g124">
              <text
                 xml:space="preserve"
                 transform="translate(79.68,283.20001)"
                 style="font-variant:normal;font-weight:normal;font-size:19.0386px;font-family:F1;-inkscape-font-specification:F1;writing-mode:lr-tb;fill:#000000;fill-opacity:1;fill-rule:nonzero;stroke:none"
                 id="text128"><tspan
                   x="0 9.5193005 19.228987 23.988638 561.63873 571.15802 580.86774 585.62738 673.96649 683.48578 693.19543 697.95514 786.29425 795.81354 805.52319 810.28284 898.62195 908.1413 917.66058 922.6106"
                   y="0"
                   id="tspan126">x2,3d2,3d2,3d2,4d2,4</tspan></text>
            </g>
            <g
               id="g130">
              <text
                 xml:space="preserve"
                 transform="translate(79.68,310.39999)"
                 style="font-variant:normal;font-weight:normal;font-size:19.0386px;font-family:F1;-inkscape-font-specification:F1;writing-mode:lr-tb;fill:#000000;fill-opacity:1;fill-rule:nonzero;stroke:none"
                 id="text134"><tspan
                   x="0 9.5193005 19.228987 23.988638 505.47485 514.99414 524.70386 529.4635 617.80261 627.3219 637.03162 641.79126 730.13037 739.64966 749.35931 754.11896 842.45807 851.97742 861.68707 866.44672"
                   y="0"
                   id="tspan132">x2,4d2,3d2,3d2,4d2,4</tspan></text>
            </g>
            <g
               id="g136">
              <text
                 xml:space="preserve"
                 transform="translate(79.68,337.60001)"
                 style="font-variant:normal;font-weight:normal;font-size:19.0386px;font-family:F1;-inkscape-font-specification:F1;writing-mode:lr-tb;fill:#000000;fill-opacity:1;fill-rule:nonzero;stroke:none"
                 id="text140"><tspan
                   x="0 9.5193005 19.228987 23.988638 786.29425 795.81354 805.52319 810.28284 898.62195 908.1413 917.66058 922.6106"
                   y="0"
                   id="tspan138">x3,1d3,4d3,4</tspan></text>
            </g>
            <g
               id="g142">
              <text
                 xml:space="preserve"
                 transform="translate(79.68,364.79999)"
                 style="font-variant:normal;font-weight:normal;font-size:19.0386px;font-family:F1;-inkscape-font-specification:F1;writing-mode:lr-tb;fill:#000000;fill-opacity:1;fill-rule:nonzero;stroke:none"
                 id="text146"><tspan
                   x="0 9.5193005 19.228987 23.988638 730.13037 739.64966 749.35931 754.11896 842.45807 851.97742 861.68707 866.44672"
                   y="0"
                   id="tspan144">x3,2d3,4d3,4</tspan></text>
            </g>
            <g
               id="g148">
              <text
                 xml:space="preserve"
                 transform="translate(79.68,392)"
                 style="font-variant:normal;font-weight:normal;font-size:19.0386px;font-family:F1;-inkscape-font-specification:F1;writing-mode:lr-tb;fill:#000000;fill-opacity:1;fill-rule:nonzero;stroke:none"
                 id="text152"><tspan
                   x="0 9.5193005 19.228987 23.988638 786.29425 795.81354 805.52319 810.28284 898.62195 908.1413 917.66058 922.6106"
                   y="0"
                   id="tspan150">x3,3d3,4d3,4</tspan></text>
            </g>
            <g
               id="g154">
              <text
                 xml:space="preserve"
                 transform="translate(79.68,419.20001)"
                 style="font-variant:normal;font-weight:normal;font-size:19.0386px;font-family:F1;-inkscape-font-specification:F1;writing-mode:lr-tb;fill:#000000;fill-opacity:1;fill-rule:nonzero;stroke:none"
                 id="text158"><tspan
                   x="0 9.5193005 19.228987 23.988638 730.13037 739.64966 749.35931 754.11896 842.45807 851.97742 861.68707 866.44672"
                   y="0"
                   id="tspan156">x3,4d3,4d3,4</tspan></text>
            </g>
            <g
               id="g160">
              <text
                 xml:space="preserve"
                 transform="translate(79.68,446.39999)"
                 style="font-variant:normal;font-weight:normal;font-size:19.0386px;font-family:F1;-inkscape-font-specification:F1;writing-mode:lr-tb;fill:#000000;fill-opacity:1;fill-rule:nonzero;stroke:none"
                 id="text164"><tspan
                   x="0 9.5193005 19.228987 23.988638"
                   y="0"
                   id="tspan162">x4,1</tspan></text>
            </g>
            <g
               id="g166">
              <text
                 xml:space="preserve"
                 transform="translate(79.68,473.60001)"
                 style="font-variant:normal;font-weight:normal;font-size:19.0386px;font-family:F1;-inkscape-font-specification:F1;writing-mode:lr-tb;fill:#000000;fill-opacity:1;fill-rule:nonzero;stroke:none"
                 id="text170"><tspan
                   x="0 9.5193005 19.228987 23.988638"
                   y="0"
                   id="tspan168">x4,2</tspan></text>
            </g>
            <g
               id="g172">
              <text
                 xml:space="preserve"
                 transform="translate(79.68,500.79999)"
                 style="font-variant:normal;font-weight:normal;font-size:19.0386px;font-family:F1;-inkscape-font-specification:F1;writing-mode:lr-tb;fill:#000000;fill-opacity:1;fill-rule:nonzero;stroke:none"
                 id="text176"><tspan
                   x="0 9.5193005 19.228987 23.988638"
                   y="0"
                   id="tspan174">x4,3</tspan></text>
            </g>
            <g
               id="g178">
              <text
                 xml:space="preserve"
                 transform="translate(79.68,528)"
                 style="font-variant:normal;font-weight:normal;font-size:19.0386px;font-family:F1;-inkscape-font-specification:F1;writing-mode:lr-tb;fill:#000000;fill-opacity:1;fill-rule:nonzero;stroke:none"
                 id="text182"><tspan
                   x="0 9.5193005 19.228987 23.988638"
                   y="0"
                   id="tspan180">x4,4</tspan></text>
            </g>
            <g
               id="g184">
              <path
                 d="m 179.36,74.400002 h 1.60001 V 98.239998 H 179.36 Z m 56.16,0 h 1.59999 V 98.239998 H 235.52 Z m 56.15999,0 H 293.28 v 23.839996 h -1.60001 z m 55.36002,0 h 3.35998 V 101.6 h -3.35998 z m 56.95999,0 h 1.60001 V 98.239998 H 404 Z m 56.16,0 h 1.60001 V 98.239998 H 460.16 Z m 56.16001,0 h 1.59997 v 23.839996 h -1.59997 z m 55.35998,0 h 3.35999 V 101.6 h -3.35999 z m 56.96002,0 h 1.59998 v 23.839996 h -1.59998 z m 56.15998,0 h 1.60003 v 23.839996 h -1.60003 z m 56.16003,0 H 742.56 v 23.839996 h -1.59998 z m 55.35999,0 h 3.35998 V 101.6 h -3.35998 z m 56.96002,0 H 854.88 v 23.839996 h -1.59997 z m 56.15997,0 h 1.59998 V 98.239998 H 909.44 Z m 56.15998,0 h 1.60003 v 23.839996 h -1.60003 z M 69.599998,126.24 H 122.4 v 1.6 H 69.599998 Z m 0,27.2 H 122.4 v 1.59999 H 69.599998 Z m 0,27.2 H 122.4 v 1.6 H 69.599998 Z m 0,26.39999 H 125.76 v 3.36 H 69.599998 Z"
                 style="fill:#000000;fill-opacity:1;fill-rule:evenodd;stroke:none"
                 id="path186" />
            </g>
            <g
               id="g188">
              <path
                 d="M 69.599998,235.03999 H 122.4 V 236.64 H 69.599998 Z m 0,27.2 H 122.4 V 263.84 H 69.599998 Z m 0,27.20001 H 122.4 v 1.60001 H 69.599998 Z"
                 style="fill:#a5a5a5;fill-opacity:1;fill-rule:evenodd;stroke:none"
                 id="path190" />
            </g>
            <g
               id="g192">
              <path
                 d="M 69.599998,315.84 H 125.76 v 3.36001 H 69.599998 Z m 0,28 H 122.4 v 1.6 H 69.599998 Z m 0,27.20001 H 122.4 v 1.6 H 69.599998 Z m 0,27.19998 H 122.4 V 399.84 H 69.599998 Z m 0,26.40002 H 125.76 V 428 H 69.599998 Z m 0,28 H 122.4 v 1.59998 H 69.599998 Z m 0,27.19999 H 122.4 v 1.6 H 69.599998 Z m 0,27.20001 H 122.4 v 1.6 H 69.599998 Z"
                 style="fill:#000000;fill-opacity:1;fill-rule:evenodd;stroke:none"
                 id="path194" />
            </g>
            <g
               id="g196">
              <path
                 d="m 66.239998,71.040001 h 3.36 V 536.79999 h -3.36 z M 122.4,74.400002 h 3.36 V 536.79999 h -3.36 z"
                 style="fill:#000000;fill-opacity:1;fill-rule:evenodd;stroke:none"
                 id="path198" />
            </g>
            <g
               id="g200">
              <path
                 d="m 179.36,101.6 h 1.60001 v 26.24 H 179.36 Z m 56.16,0 h 1.59999 V 508 H 235.52 Z m 56.15999,0 H 293.28 V 508 h -1.60001 z m 56.16001,0 h 1.6 V 508 h -1.6 z m 56.16,0 h 1.60001 V 508 H 404 Z m 56.16,0 h 1.60001 V 508 H 460.16 Z m 56.16001,0 h 1.59997 V 508 h -1.59997 z m 56.15997,0 h 1.60004 V 508 h -1.60004 z m 56.16003,0 h 1.59998 V 508 h -1.59998 z m 56.15998,0 h 1.60003 V 508 h -1.60003 z m 56.16003,0 H 742.56 V 508 h -1.59998 z m 56.15998,0 h 1.59997 V 508 H 797.12 Z m 56.16003,0 H 854.88 V 508 h -1.59997 z m 56.15997,0 h 1.59998 V 508 H 909.44 Z m 56.15998,0 h 1.60003 v 431.84 h -1.60003 z"
                 style="fill:#d9d9d9;fill-opacity:1;fill-rule:evenodd;stroke:none"
                 id="path202" />
            </g>
            <g
               id="g204">
              <path
                 d="m 1020.96,74.400002 h 3.3599 V 536.79999 h -3.3599 z"
                 style="fill:#000000;fill-opacity:1;fill-rule:nonzero;stroke:none"
                 id="path206" />
            </g>
            <g
               id="g208">
              <path
                 d="M 69.599998,71.040001 H 1024.3199 v 3.360001 H 69.599998 Z m 0,27.199997 H 1024.3199 V 101.6 H 69.599998 Z"
                 style="fill:#000000;fill-opacity:1;fill-rule:evenodd;stroke:none"
                 id="path210" />
            </g>
            <g
               id="g212">
              <path
                 d="M 180.96001,126.24 H 1020.96 v 1.6 H 180.96001 Z m -0.80001,27.2 h 840.8 v 1.59999 h -840.8 z m 0,27.2 h 840.8 v 1.6 h -840.8 z m 0,27.2 h 840.8 v 1.6 h -840.8 z m 0,27.19999 h 840.8 V 236.64 h -840.8 z m 0,27.2 h 840.8 V 263.84 h -840.8 z m 0,27.20001 h 840.8 v 1.60001 h -840.8 z m 0,27.20001 h 840.8 v 1.59998 h -840.8 z m 0,27.19999 h 840.8 v 1.6 h -840.8 z m 0,27.20001 h 840.8 v 1.6 h -840.8 z m 0,27.19998 h 840.8 V 399.84 h -840.8 z m 0,27.20001 h 840.8 v 1.60001 h -840.8 z m 0,27.20001 h 840.8 v 1.59998 h -840.8 z m 0,27.19999 h 840.8 v 1.6 h -840.8 z m 787.04001,27.20001 H 1020.96 v 1.6 h -53.75999 z"
                 style="fill:#d9d9d9;fill-opacity:1;fill-rule:evenodd;stroke:none"
                 id="path214" />
            </g>
            <g
               id="g216">
              <path
                 d="M 69.599998,533.44 H 1024.3199 v 3.35999 H 69.599998 Z"
                 style="fill:#000000;fill-opacity:1;fill-rule:nonzero;stroke:none"
                 id="path218" />
            </g>
          </g>
        </g>
      </g>
    </g>
  </g>
</svg>
