<?xml version="1.0" encoding="UTF-8" standalone="no"?>
<!-- Created with Inkscape (http://www.inkscape.org/) -->

<svg
   version="1.1"
   id="svg2"
   width="738.66669"
   height="360"
   viewBox="0 0 738.66669 360"
   xmlns="http://www.w3.org/2000/svg"
   xmlns:svg="http://www.w3.org/2000/svg">
  <defs
     id="defs6">
    <clipPath
       clipPathUnits="userSpaceOnUse"
       id="clipPath18">
      <path
         d="M 0,0 H 841.92007 V 595.32 H 0 Z"
         id="path16" />
    </clipPath>
  </defs>
  <g
     id="g8"
     transform="matrix(1.3333333,0,0,-1.3333333,0,360)">
    <g
       id="g10"
       transform="translate(-49,-272)">
      <g
         id="g12">
        <g
           id="g14"
           clip-path="url(#clipPath18)">
          <g
             id="g20"
             transform="matrix(0.75,0,0,-0.75,0,595.32001)">
            <g
               id="g22">
              <path
                 d="m 111.04,114.56 h 43.35999 v 21.11999 H 111.04 Z"
                 style="fill:#d9d9d9;fill-opacity:1;fill-rule:nonzero;stroke:none"
                 id="path24" />
            </g>
            <g
               id="g26">
              <path
                 d="m 111.04,135.52 h 86.56001 v 21.12 H 111.04 Z"
                 style="fill:#d9d9d9;fill-opacity:1;fill-rule:nonzero;stroke:none"
                 id="path28" />
            </g>
            <g
               id="g30">
              <path
                 d="M 111.04,156.48 H 240.8 v 21.12001 H 111.04 Z"
                 style="fill:#d9d9d9;fill-opacity:1;fill-rule:nonzero;stroke:none"
                 id="path32" />
            </g>
            <g
               id="g34">
              <path
                 d="M 111.04,177.44 H 284 v 21.12 H 111.04 Z"
                 style="fill:#d9d9d9;fill-opacity:1;fill-rule:nonzero;stroke:none"
                 id="path36" />
            </g>
            <g
               id="g38">
              <path
                 d="M 111.04,198.39999 H 327.20001 V 219.52 H 111.04 Z"
                 style="fill:#d9d9d9;fill-opacity:1;fill-rule:nonzero;stroke:none"
                 id="path40" />
            </g>
            <g
               id="g42">
              <path
                 d="m 111.04,219.36 h 259.35999 v 21.12 H 111.04 Z"
                 style="fill:#d9d9d9;fill-opacity:1;fill-rule:nonzero;stroke:none"
                 id="path44" />
            </g>
            <g
               id="g46">
              <path
                 d="M 111.04,240.32001 H 413.60001 V 261.44 H 111.04 Z"
                 style="fill:#d9d9d9;fill-opacity:1;fill-rule:nonzero;stroke:none"
                 id="path48" />
            </g>
            <g
               id="g50">
              <path
                 d="m 111.04,261.28 h 345.75999 v 21.11999 H 111.04 Z"
                 style="fill:#d9d9d9;fill-opacity:1;fill-rule:nonzero;stroke:none"
                 id="path52" />
            </g>
            <g
               id="g54">
              <path
                 d="M 111.04,282.23999 H 500 v 21.12 H 111.04 Z"
                 style="fill:#d9d9d9;fill-opacity:1;fill-rule:nonzero;stroke:none"
                 id="path56" />
            </g>
            <g
               id="g58">
              <path
                 d="m 111.04,303.20001 h 432.16001 v 21.12 H 111.04 Z"
                 style="fill:#d9d9d9;fill-opacity:1;fill-rule:nonzero;stroke:none"
                 id="path60" />
            </g>
            <g
               id="g62">
              <path
                 d="m 111.04,324.16 h 475.36002 v 21.12 H 111.04 Z"
                 style="fill:#d9d9d9;fill-opacity:1;fill-rule:nonzero;stroke:none"
                 id="path64" />
            </g>
            <g
               id="g66">
              <path
                 d="m 111.04,345.12 h 518.55998 v 21.11999 H 111.04 Z"
                 style="fill:#d9d9d9;fill-opacity:1;fill-rule:nonzero;stroke:none"
                 id="path68" />
            </g>
            <g
               id="g70">
              <path
                 d="m 111.04,366.07999 h 561.75999 v 21.12002 H 111.04 Z"
                 style="fill:#d9d9d9;fill-opacity:1;fill-rule:nonzero;stroke:none"
                 id="path72" />
            </g>
            <g
               id="g74">
              <path
                 d="M 111.04,387.04001 H 716 V 408.16 H 111.04 Z"
                 style="fill:#d9d9d9;fill-opacity:1;fill-rule:nonzero;stroke:none"
                 id="path76" />
            </g>
            <g
               id="g78">
              <path
                 d="m 111.04,408 h 648.16001 v 21.12 H 111.04 Z"
                 style="fill:#d9d9d9;fill-opacity:1;fill-rule:nonzero;stroke:none"
                 id="path80" />
            </g>
            <g
               id="g82">
              <text
                 xml:space="preserve"
                 transform="translate(120.32,88.160004)"
                 style="font-variant:normal;font-weight:normal;font-size:14.7194px;font-family:F1;-inkscape-font-specification:F1;writing-mode:lr-tb;fill:#000000;fill-opacity:1;fill-rule:nonzero;stroke:none"
                 id="text86"><tspan
                   x="0 7.3597002 14.7194 18.39925 43.127842 50.487541 57.84724 61.527092 86.402878 93.762581 101.12228 104.80213 129.53072 136.89043 144.25012 147.92998 172.80576 180.16545 187.52516 191.205 215.93359 223.2933 230.653 234.33286 259.20865 266.56833 273.92804 277.60788 302.33649 309.69617 317.05588 320.73572 345.61151 352.97122 360.3309 364.01077 388.73935 396.09906 403.45874 407.13861 432.0144 439.37408 446.7338 450.41364 475.14224 482.50192 489.86163 493.54147 518.4173 525.77698 533.13666 536.81653 561.5451 568.90479 576.26453 579.94434 604.82013 612.17987 619.53955 623.21942 647.948 655.30768 662.66736 666.34723"
                   y="0"
                   id="tspan84">x1,1x1,2x1,3x1,4x2,1x2,2x2,3x2,4x3,1x3,2x3,3x3,4x4,1x4,2x4,3x4,4</tspan></text>
            </g>
            <g
               id="g88">
              <text
                 xml:space="preserve"
                 transform="translate(77.120003,109.12)"
                 style="font-variant:normal;font-weight:normal;font-size:14.7194px;font-family:F1;-inkscape-font-specification:F1;writing-mode:lr-tb;fill:#000000;fill-opacity:1;fill-rule:nonzero;stroke:none"
                 id="text92"><tspan
                   x="0 7.3597002 14.7194 18.39925"
                   y="0"
                   id="tspan90">x1,1</tspan></text>
            </g>
            <g
               id="g94">
              <text
                 xml:space="preserve"
                 transform="translate(123.68,109.12)"
                 style="font-variant:normal;font-weight:normal;font-size:14.7194px;font-family:F1;-inkscape-font-specification:F1;writing-mode:lr-tb;fill:#ff0000;fill-opacity:1;fill-rule:nonzero;stroke:none"
                 id="text98"><tspan
                   x="0 4.7102079 12.069908"
                   y="0"
                   id="tspan96">-2λ</tspan></text>
            </g>
            <g
               id="g100">
              <text
                 xml:space="preserve"
                 transform="translate(169.11999,109.12)"
                 style="font-variant:normal;font-weight:normal;font-size:14.7194px;font-family:F1;-inkscape-font-specification:F1;writing-mode:lr-tb;fill:#00b0f0;fill-opacity:1;fill-rule:nonzero;stroke:none"
                 id="text104"><tspan
                   x="0 7.3597002 43.127842 50.487541 86.402878 93.762581 129.53072 136.89043 167.21239 174.57208 181.93178 185.61163 253.61526 260.97498 268.33466 272.01453 302.33649 309.69617 340.01813 347.37784 354.73755 358.41739 426.42102 433.78073 441.14041 444.82028 475.14224 482.50192 512.82391 520.18359 527.54327 531.22314 599.22675 606.58649 613.94617 617.62604"
                   y="0"
                   id="tspan102">2λ2λ2λ2λd1,2d1,22λd1,3d1,32λd1,4d1,4</tspan></text>
            </g>
            <g
               id="g106">
              <text
                 xml:space="preserve"
                 transform="translate(77.120003,130.08)"
                 style="font-variant:normal;font-weight:normal;font-size:14.7194px;font-family:F1;-inkscape-font-specification:F1;writing-mode:lr-tb;fill:#000000;fill-opacity:1;fill-rule:nonzero;stroke:none"
                 id="text110"><tspan
                   x="0 7.3597002 14.7194 18.39925"
                   y="0"
                   id="tspan108">x1,2</tspan></text>
            </g>
            <g
               id="g112">
              <text
                 xml:space="preserve"
                 transform="translate(166.88,130.08)"
                 style="font-variant:normal;font-weight:normal;font-size:14.7194px;font-family:F1;-inkscape-font-specification:F1;writing-mode:lr-tb;fill:#ff0000;fill-opacity:1;fill-rule:nonzero;stroke:none"
                 id="text116"><tspan
                   x="0 4.7102079 12.069908"
                   y="0"
                   id="tspan114">-2λ</tspan></text>
            </g>
            <g
               id="g118">
              <text
                 xml:space="preserve"
                 transform="translate(212.32001,130.08)"
                 style="font-variant:normal;font-weight:normal;font-size:14.7194px;font-family:F1;-inkscape-font-specification:F1;writing-mode:lr-tb;fill:#00b0f0;fill-opacity:1;fill-rule:nonzero;stroke:none"
                 id="text122"><tspan
                   x="0 7.3597002 43.127842 50.487541 80.809509 88.169205 95.528908 99.208755 129.53072 136.89043 167.21239 174.57208 181.93178 185.61163 253.61526 260.97498 268.33466 272.01453 302.33649 309.69617 340.01813 347.37784 354.73755 358.41739 426.42102 433.78073 441.14041 444.82028 475.14224 482.50192 512.82391 520.18359 527.54327 531.22314"
                   y="0"
                   id="tspan120">2λ2λd1,22λd1,2d1,32λd1,3d1,42λd1,4</tspan></text>
            </g>
            <g
               id="g124">
              <text
                 xml:space="preserve"
                 transform="translate(77.120003,151.03999)"
                 style="font-variant:normal;font-weight:normal;font-size:14.7194px;font-family:F1;-inkscape-font-specification:F1;writing-mode:lr-tb;fill:#000000;fill-opacity:1;fill-rule:nonzero;stroke:none"
                 id="text128"><tspan
                   x="0 7.3597002 14.7194 18.39925"
                   y="0"
                   id="tspan126">x1,3</tspan></text>
            </g>
            <g
               id="g130">
              <text
                 xml:space="preserve"
                 transform="translate(210.08,151.03999)"
                 style="font-variant:normal;font-weight:normal;font-size:14.7194px;font-family:F1;-inkscape-font-specification:F1;writing-mode:lr-tb;fill:#ff0000;fill-opacity:1;fill-rule:nonzero;stroke:none"
                 id="text134"><tspan
                   x="0 4.7102079 12.069908"
                   y="0"
                   id="tspan132">-2λ</tspan></text>
            </g>
            <g
               id="g136">
              <text
                 xml:space="preserve"
                 transform="translate(255.52,151.03999)"
                 style="font-variant:normal;font-weight:normal;font-size:14.7194px;font-family:F1;-inkscape-font-specification:F1;writing-mode:lr-tb;fill:#00b0f0;fill-opacity:1;fill-rule:nonzero;stroke:none"
                 id="text140"><tspan
                   x="0 7.3597002 80.809509 88.169205 95.528908 99.208755 129.53072 136.89043 167.21239 174.57208 181.93178 185.61163 253.61526 260.97498 268.33466 272.01453 302.33649 309.69617 340.01813 347.37784 354.73755 358.41739 426.42102 433.78073 441.14041 444.82028 475.14224 482.50192 512.82391 520.18359 527.54327 531.22314"
                   y="0"
                   id="tspan138">2λd1,22λd1,2d1,32λd1,3d1,42λd1,4</tspan></text>
            </g>
            <g
               id="g142">
              <text
                 xml:space="preserve"
                 transform="translate(77.120003,172)"
                 style="font-variant:normal;font-weight:normal;font-size:14.7194px;font-family:F1;-inkscape-font-specification:F1;writing-mode:lr-tb;fill:#000000;fill-opacity:1;fill-rule:nonzero;stroke:none"
                 id="text146"><tspan
                   x="0 7.3597002 14.7194 18.39925"
                   y="0"
                   id="tspan144">x1,4</tspan></text>
            </g>
            <g
               id="g148">
              <text
                 xml:space="preserve"
                 transform="translate(253.28,172)"
                 style="font-variant:normal;font-weight:normal;font-size:14.7194px;font-family:F1;-inkscape-font-specification:F1;writing-mode:lr-tb;fill:#ff0000;fill-opacity:1;fill-rule:nonzero;stroke:none"
                 id="text152"><tspan
                   x="0 4.7102079 12.069908"
                   y="0"
                   id="tspan150">-2λ</tspan></text>
            </g>
            <g
               id="g154">
              <text
                 xml:space="preserve"
                 transform="translate(293.12,172)"
                 style="font-variant:normal;font-weight:normal;font-size:14.7194px;font-family:F1;-inkscape-font-specification:F1;writing-mode:lr-tb;fill:#00b0f0;fill-opacity:1;fill-rule:nonzero;stroke:none"
                 id="text158"><tspan
                   x="0 7.3597002 14.7194 18.39925 86.402878 93.762581 101.12228 104.80213 135.27129 142.63098 172.80576 180.16545 187.52516 191.205 259.20865 266.56833 273.92804 277.60788 307.92984 315.28955 345.61151 352.97122 360.3309 364.01077 432.0144 439.37408 446.7338 450.41364 480.7356 488.09531"
                   y="0"
                   id="tspan156">d1,2d1,22λd1,3d1,32λd1,4d1,42λ</tspan></text>
            </g>
            <g
               id="g160">
              <text
                 xml:space="preserve"
                 transform="translate(77.120003,192.96001)"
                 style="font-variant:normal;font-weight:normal;font-size:14.7194px;font-family:F1;-inkscape-font-specification:F1;writing-mode:lr-tb;fill:#000000;fill-opacity:1;fill-rule:nonzero;stroke:none"
                 id="text164"><tspan
                   x="0 7.3597002 14.7194 18.39925"
                   y="0"
                   id="tspan162">x2,1</tspan></text>
            </g>
            <g
               id="g166">
              <text
                 xml:space="preserve"
                 transform="translate(296.48001,192.96001)"
                 style="font-variant:normal;font-weight:normal;font-size:14.7194px;font-family:F1;-inkscape-font-specification:F1;writing-mode:lr-tb;fill:#ff0000;fill-opacity:1;fill-rule:nonzero;stroke:none"
                 id="text170"><tspan
                   x="0 4.7102079 12.069908"
                   y="0"
                   id="tspan168">-2λ</tspan></text>
            </g>
            <g
               id="g172">
              <text
                 xml:space="preserve"
                 transform="translate(341.92001,192.96001)"
                 style="font-variant:normal;font-weight:normal;font-size:14.7194px;font-family:F1;-inkscape-font-specification:F1;writing-mode:lr-tb;fill:#00b0f0;fill-opacity:1;fill-rule:nonzero;stroke:none"
                 id="text176"><tspan
                   x="0 7.3597002 43.127842 50.487541 86.402878 93.762581 129.53072 136.89043 167.21239 174.57208 181.93178 185.61163 253.61526 260.97498 268.33466 272.01453 302.33649 309.69617 340.01813 347.37784 354.73755 358.41739 426.42102 433.78073 441.14041 444.82028"
                   y="0"
                   id="tspan174">2λ2λ2λ2λd2,3d2,32λd2,4d2,4</tspan></text>
            </g>
            <g
               id="g178">
              <text
                 xml:space="preserve"
                 transform="translate(77.120003,213.92)"
                 style="font-variant:normal;font-weight:normal;font-size:14.7194px;font-family:F1;-inkscape-font-specification:F1;writing-mode:lr-tb;fill:#000000;fill-opacity:1;fill-rule:nonzero;stroke:none"
                 id="text182"><tspan
                   x="0 7.3597002 14.7194 18.39925"
                   y="0"
                   id="tspan180">x2,2</tspan></text>
            </g>
            <g
               id="g184">
              <text
                 xml:space="preserve"
                 transform="translate(339.67999,213.92)"
                 style="font-variant:normal;font-weight:normal;font-size:14.7194px;font-family:F1;-inkscape-font-specification:F1;writing-mode:lr-tb;fill:#ff0000;fill-opacity:1;fill-rule:nonzero;stroke:none"
                 id="text188"><tspan
                   x="0 4.7102079 12.069908"
                   y="0"
                   id="tspan186">-2λ</tspan></text>
            </g>
            <g
               id="g190">
              <text
                 xml:space="preserve"
                 transform="translate(385.12,213.92)"
                 style="font-variant:normal;font-weight:normal;font-size:14.7194px;font-family:F1;-inkscape-font-specification:F1;writing-mode:lr-tb;fill:#00b0f0;fill-opacity:1;fill-rule:nonzero;stroke:none"
                 id="text194"><tspan
                   x="0 7.3597002 43.127842 50.487541 80.809509 88.169205 95.528908 99.208755 129.53072 136.89043 167.21239 174.57208 181.93178 185.61163 253.61526 260.97498 268.33466 272.01453 302.33649 309.69617 340.01813 347.37784 354.73755 358.41739"
                   y="0"
                   id="tspan192">2λ2λd2,32λd2,3d2,42λd2,4</tspan></text>
            </g>
            <g
               id="g196">
              <text
                 xml:space="preserve"
                 transform="translate(77.120003,234.88)"
                 style="font-variant:normal;font-weight:normal;font-size:14.7194px;font-family:F1;-inkscape-font-specification:F1;writing-mode:lr-tb;fill:#000000;fill-opacity:1;fill-rule:nonzero;stroke:none"
                 id="text200"><tspan
                   x="0 7.3597002 14.7194 18.39925"
                   y="0"
                   id="tspan198">x2,3</tspan></text>
            </g>
            <g
               id="g202">
              <text
                 xml:space="preserve"
                 transform="translate(382.88,234.88)"
                 style="font-variant:normal;font-weight:normal;font-size:14.7194px;font-family:F1;-inkscape-font-specification:F1;writing-mode:lr-tb;fill:#ff0000;fill-opacity:1;fill-rule:nonzero;stroke:none"
                 id="text206"><tspan
                   x="0 4.7102079 12.069908"
                   y="0"
                   id="tspan204">-2λ</tspan></text>
            </g>
            <g
               id="g208">
              <text
                 xml:space="preserve"
                 transform="translate(428.32001,234.88)"
                 style="font-variant:normal;font-weight:normal;font-size:14.7194px;font-family:F1;-inkscape-font-specification:F1;writing-mode:lr-tb;fill:#00b0f0;fill-opacity:1;fill-rule:nonzero;stroke:none"
                 id="text212"><tspan
                   x="0 7.3597002 80.809509 88.169205 95.528908 99.208755 129.53072 136.89043 167.21239 174.57208 181.93178 185.61163 253.61526 260.97498 268.33466 272.01453 302.33649 309.69617 340.01813 347.37784 354.73755 358.41739"
                   y="0"
                   id="tspan210">2λd2,32λd2,3d2,42λd2,4</tspan></text>
            </g>
            <g
               id="g214">
              <text
                 xml:space="preserve"
                 transform="translate(77.120003,255.84)"
                 style="font-variant:normal;font-weight:normal;font-size:14.7194px;font-family:F1;-inkscape-font-specification:F1;writing-mode:lr-tb;fill:#000000;fill-opacity:1;fill-rule:nonzero;stroke:none"
                 id="text218"><tspan
                   x="0 7.3597002 14.7194 18.39925"
                   y="0"
                   id="tspan216">x2,4</tspan></text>
            </g>
            <g
               id="g220">
              <text
                 xml:space="preserve"
                 transform="translate(426.07999,255.84)"
                 style="font-variant:normal;font-weight:normal;font-size:14.7194px;font-family:F1;-inkscape-font-specification:F1;writing-mode:lr-tb;fill:#ff0000;fill-opacity:1;fill-rule:nonzero;stroke:none"
                 id="text224"><tspan
                   x="0 4.7102079 12.069908"
                   y="0"
                   id="tspan222">-2λ</tspan></text>
            </g>
            <g
               id="g226">
              <text
                 xml:space="preserve"
                 transform="translate(465.92001,255.84)"
                 style="font-variant:normal;font-weight:normal;font-size:14.7194px;font-family:F1;-inkscape-font-specification:F1;writing-mode:lr-tb;fill:#00b0f0;fill-opacity:1;fill-rule:nonzero;stroke:none"
                 id="text230"><tspan
                   x="0 7.3597002 14.7194 18.39925 86.402878 93.762581 101.12228 104.80213 135.27129 142.63098 172.80576 180.16545 187.52516 191.205 259.20865 266.56833 273.92804 277.60788 307.92984 315.28955"
                   y="0"
                   id="tspan228">d2,3d2,32λd2,4d2,42λ</tspan></text>
            </g>
            <g
               id="g232">
              <text
                 xml:space="preserve"
                 transform="translate(77.120003,276.79999)"
                 style="font-variant:normal;font-weight:normal;font-size:14.7194px;font-family:F1;-inkscape-font-specification:F1;writing-mode:lr-tb;fill:#000000;fill-opacity:1;fill-rule:nonzero;stroke:none"
                 id="text236"><tspan
                   x="0 7.3597002 14.7194 18.39925"
                   y="0"
                   id="tspan234">x3,1</tspan></text>
            </g>
            <g
               id="g238">
              <text
                 xml:space="preserve"
                 transform="translate(469.28,276.79999)"
                 style="font-variant:normal;font-weight:normal;font-size:14.7194px;font-family:F1;-inkscape-font-specification:F1;writing-mode:lr-tb;fill:#ff0000;fill-opacity:1;fill-rule:nonzero;stroke:none"
                 id="text242"><tspan
                   x="0 4.7102079 12.069908"
                   y="0"
                   id="tspan240">-2λ</tspan></text>
            </g>
            <g
               id="g244">
              <text
                 xml:space="preserve"
                 transform="translate(514.71997,276.79999)"
                 style="font-variant:normal;font-weight:normal;font-size:14.7194px;font-family:F1;-inkscape-font-specification:F1;writing-mode:lr-tb;fill:#00b0f0;fill-opacity:1;fill-rule:nonzero;stroke:none"
                 id="text248"><tspan
                   x="0 7.3597002 43.127842 50.487541 86.402878 93.762581 129.53072 136.89043 167.21239 174.57208 181.93178 185.61163 253.61526 260.97498 268.33466 272.01453"
                   y="0"
                   id="tspan246">2λ2λ2λ2λd3,4d3,4</tspan></text>
            </g>
            <g
               id="g250">
              <text
                 xml:space="preserve"
                 transform="translate(77.120003,297.76001)"
                 style="font-variant:normal;font-weight:normal;font-size:14.7194px;font-family:F1;-inkscape-font-specification:F1;writing-mode:lr-tb;fill:#000000;fill-opacity:1;fill-rule:nonzero;stroke:none"
                 id="text254"><tspan
                   x="0 7.3597002 14.7194 18.39925"
                   y="0"
                   id="tspan252">x3,2</tspan></text>
            </g>
            <g
               id="g256">
              <text
                 xml:space="preserve"
                 transform="translate(512.47998,297.76001)"
                 style="font-variant:normal;font-weight:normal;font-size:14.7194px;font-family:F1;-inkscape-font-specification:F1;writing-mode:lr-tb;fill:#ff0000;fill-opacity:1;fill-rule:nonzero;stroke:none"
                 id="text260"><tspan
                   x="0 4.7102079 12.069908"
                   y="0"
                   id="tspan258">-2λ</tspan></text>
            </g>
            <g
               id="g262">
              <text
                 xml:space="preserve"
                 transform="translate(557.91998,297.76001)"
                 style="font-variant:normal;font-weight:normal;font-size:14.7194px;font-family:F1;-inkscape-font-specification:F1;writing-mode:lr-tb;fill:#00b0f0;fill-opacity:1;fill-rule:nonzero;stroke:none"
                 id="text266"><tspan
                   x="0 7.3597002 43.127842 50.487541 80.809509 88.169205 95.528908 99.208755 129.53072 136.89043 167.21239 174.57208 181.93178 185.61163"
                   y="0"
                   id="tspan264">2λ2λd3,42λd3,4</tspan></text>
            </g>
            <g
               id="g268">
              <text
                 xml:space="preserve"
                 transform="translate(77.120003,318.72)"
                 style="font-variant:normal;font-weight:normal;font-size:14.7194px;font-family:F1;-inkscape-font-specification:F1;writing-mode:lr-tb;fill:#000000;fill-opacity:1;fill-rule:nonzero;stroke:none"
                 id="text272"><tspan
                   x="0 7.3597002 14.7194 18.39925"
                   y="0"
                   id="tspan270">x3,3</tspan></text>
            </g>
            <g
               id="g274">
              <text
                 xml:space="preserve"
                 transform="translate(555.67999,318.72)"
                 style="font-variant:normal;font-weight:normal;font-size:14.7194px;font-family:F1;-inkscape-font-specification:F1;writing-mode:lr-tb;fill:#ff0000;fill-opacity:1;fill-rule:nonzero;stroke:none"
                 id="text278"><tspan
                   x="0 4.7102079 12.069908"
                   y="0"
                   id="tspan276">-2λ</tspan></text>
            </g>
            <g
               id="g280">
              <text
                 xml:space="preserve"
                 transform="translate(601.12,318.72)"
                 style="font-variant:normal;font-weight:normal;font-size:14.7194px;font-family:F1;-inkscape-font-specification:F1;writing-mode:lr-tb;fill:#00b0f0;fill-opacity:1;fill-rule:nonzero;stroke:none"
                 id="text284"><tspan
                   x="0 7.3597002 80.809509 88.169205 95.528908 99.208755 129.53072 136.89043 167.21239 174.57208 181.93178 185.61163"
                   y="0"
                   id="tspan282">2λd3,42λd3,4</tspan></text>
            </g>
            <g
               id="g286">
              <text
                 xml:space="preserve"
                 transform="translate(77.120003,339.67999)"
                 style="font-variant:normal;font-weight:normal;font-size:14.7194px;font-family:F1;-inkscape-font-specification:F1;writing-mode:lr-tb;fill:#000000;fill-opacity:1;fill-rule:nonzero;stroke:none"
                 id="text290"><tspan
                   x="0 7.3597002 14.7194 18.39925"
                   y="0"
                   id="tspan288">x3,4</tspan></text>
            </g>
            <g
               id="g292">
              <text
                 xml:space="preserve"
                 transform="translate(598.88,339.67999)"
                 style="font-variant:normal;font-weight:normal;font-size:14.7194px;font-family:F1;-inkscape-font-specification:F1;writing-mode:lr-tb;fill:#ff0000;fill-opacity:1;fill-rule:nonzero;stroke:none"
                 id="text296"><tspan
                   x="0 4.7102079 12.069908"
                   y="0"
                   id="tspan294">-2λ</tspan></text>
            </g>
            <g
               id="g298">
              <text
                 xml:space="preserve"
                 transform="translate(638.71997,339.67999)"
                 style="font-variant:normal;font-weight:normal;font-size:14.7194px;font-family:F1;-inkscape-font-specification:F1;writing-mode:lr-tb;fill:#00b0f0;fill-opacity:1;fill-rule:nonzero;stroke:none"
                 id="text302"><tspan
                   x="0 7.3597002 14.7194 18.39925 86.402878 93.762581 101.12228 104.80213 135.27129 142.63098"
                   y="0"
                   id="tspan300">d3,4d3,42λ</tspan></text>
            </g>
            <g
               id="g304">
              <text
                 xml:space="preserve"
                 transform="translate(77.120003,360.64001)"
                 style="font-variant:normal;font-weight:normal;font-size:14.7194px;font-family:F1;-inkscape-font-specification:F1;writing-mode:lr-tb;fill:#000000;fill-opacity:1;fill-rule:nonzero;stroke:none"
                 id="text308"><tspan
                   x="0 7.3597002 14.7194 18.39925"
                   y="0"
                   id="tspan306">x4,1</tspan></text>
            </g>
            <g
               id="g310">
              <text
                 xml:space="preserve"
                 transform="translate(642.08002,360.64001)"
                 style="font-variant:normal;font-weight:normal;font-size:14.7194px;font-family:F1;-inkscape-font-specification:F1;writing-mode:lr-tb;fill:#ff0000;fill-opacity:1;fill-rule:nonzero;stroke:none"
                 id="text314"><tspan
                   x="0 4.7102079 12.069908"
                   y="0"
                   id="tspan312">-2λ</tspan></text>
            </g>
            <g
               id="g316">
              <text
                 xml:space="preserve"
                 transform="translate(687.52002,360.64001)"
                 style="font-variant:normal;font-weight:normal;font-size:14.7194px;font-family:F1;-inkscape-font-specification:F1;writing-mode:lr-tb;fill:#00b0f0;fill-opacity:1;fill-rule:nonzero;stroke:none"
                 id="text320"><tspan
                   x="0 7.3597002 43.127842 50.487541 86.402878 93.762581"
                   y="0"
                   id="tspan318">2λ2λ2λ</tspan></text>
            </g>
            <g
               id="g322">
              <text
                 xml:space="preserve"
                 transform="translate(77.120003,381.60001)"
                 style="font-variant:normal;font-weight:normal;font-size:14.7194px;font-family:F1;-inkscape-font-specification:F1;writing-mode:lr-tb;fill:#000000;fill-opacity:1;fill-rule:nonzero;stroke:none"
                 id="text326"><tspan
                   x="0 7.3597002 14.7194 18.39925"
                   y="0"
                   id="tspan324">x4,2</tspan></text>
            </g>
            <g
               id="g328">
              <text
                 xml:space="preserve"
                 transform="translate(685.28003,381.60001)"
                 style="font-variant:normal;font-weight:normal;font-size:14.7194px;font-family:F1;-inkscape-font-specification:F1;writing-mode:lr-tb;fill:#ff0000;fill-opacity:1;fill-rule:nonzero;stroke:none"
                 id="text332"><tspan
                   x="0 4.7102079 12.069908"
                   y="0"
                   id="tspan330">-2λ</tspan></text>
            </g>
            <g
               id="g334">
              <text
                 xml:space="preserve"
                 transform="translate(730.71997,381.60001)"
                 style="font-variant:normal;font-weight:normal;font-size:14.7194px;font-family:F1;-inkscape-font-specification:F1;writing-mode:lr-tb;fill:#00b0f0;fill-opacity:1;fill-rule:nonzero;stroke:none"
                 id="text338"><tspan
                   x="0 7.3597002 43.127842 50.487541"
                   y="0"
                   id="tspan336">2λ2λ</tspan></text>
            </g>
            <g
               id="g340">
              <text
                 xml:space="preserve"
                 transform="translate(77.120003,402.56)"
                 style="font-variant:normal;font-weight:normal;font-size:14.7194px;font-family:F1;-inkscape-font-specification:F1;writing-mode:lr-tb;fill:#000000;fill-opacity:1;fill-rule:nonzero;stroke:none"
                 id="text344"><tspan
                   x="0 7.3597002 14.7194 18.39925"
                   y="0"
                   id="tspan342">x4,3</tspan></text>
            </g>
            <g
               id="g346">
              <text
                 xml:space="preserve"
                 transform="translate(728.47998,402.56)"
                 style="font-variant:normal;font-weight:normal;font-size:14.7194px;font-family:F1;-inkscape-font-specification:F1;writing-mode:lr-tb;fill:#ff0000;fill-opacity:1;fill-rule:nonzero;stroke:none"
                 id="text350"><tspan
                   x="0 4.7102079 12.069908"
                   y="0"
                   id="tspan348">-2λ</tspan></text>
            </g>
            <g
               id="g352">
              <text
                 xml:space="preserve"
                 transform="translate(773.91998,402.56)"
                 style="font-variant:normal;font-weight:normal;font-size:14.7194px;font-family:F1;-inkscape-font-specification:F1;writing-mode:lr-tb;fill:#00b0f0;fill-opacity:1;fill-rule:nonzero;stroke:none"
                 id="text356"><tspan
                   x="0 7.3597002"
                   y="0"
                   id="tspan354">2λ</tspan></text>
            </g>
            <g
               id="g358">
              <text
                 xml:space="preserve"
                 transform="translate(77.120003,423.51999)"
                 style="font-variant:normal;font-weight:normal;font-size:14.7194px;font-family:F1;-inkscape-font-specification:F1;writing-mode:lr-tb;fill:#000000;fill-opacity:1;fill-rule:nonzero;stroke:none"
                 id="text362"><tspan
                   x="0 7.3597002 14.7194 18.39925"
                   y="0"
                   id="tspan360">x4,4</tspan></text>
            </g>
            <g
               id="g364">
              <text
                 xml:space="preserve"
                 transform="translate(771.67999,423.51999)"
                 style="font-variant:normal;font-weight:normal;font-size:14.7194px;font-family:F1;-inkscape-font-specification:F1;writing-mode:lr-tb;fill:#ff0000;fill-opacity:1;fill-rule:nonzero;stroke:none"
                 id="text368"><tspan
                   x="0 4.7102079 12.069908"
                   y="0"
                   id="tspan366">-2λ</tspan></text>
            </g>
            <g
               id="g370">
              <path
                 d="M 153.60001,73.919998 H 154.88 V 92.32 h -1.27999 z m 43.19999,0 h 1.28 V 92.32 h -1.28 z m 43.2,0 h 1.28 V 92.32 H 240 Z m 42.56,0 h 2.56 v 20.959999 h -2.56 z m 43.83999,0 h 1.28 V 92.32 h -1.28 z m 43.20002,0 H 370.88 V 92.32 h -1.27999 z m 43.19998,0 h 1.28 V 92.32 h -1.28 z m 42.56,0 h 2.56002 v 20.959999 h -2.56002 z m 43.84002,0 h 1.28 V 92.32 h -1.28 z m 43.20001,0 h 1.27997 V 92.32 h -1.27997 z m 43.19996,0 H 586.88 V 92.32 h -1.28002 z m 42.55999,0 h 2.56 v 20.959999 h -2.56 z m 43.84003,0 h 1.28003 V 92.32 H 672 Z m 43.20001,0 h 1.27997 V 92.32 h -1.27997 z m 43.20001,0 h 1.27997 V 92.32 h -1.27997 z M 69.120003,113.92 H 109.76 v 1.28 H 69.120003 Z m 0,20.96 H 109.76 v 1.28 H 69.120003 Z m 0,20.96 H 109.76 v 1.27999 H 69.120003 Z m 0,20.32 H 112.32 v 2.56 H 69.120003 Z"
                 style="fill:#000000;fill-opacity:1;fill-rule:evenodd;stroke:none"
                 id="path372" />
            </g>
            <g
               id="g374">
              <path
                 d="M 69.120003,197.75999 H 109.76 v 1.28 H 69.120003 Z m 0,20.96001 H 109.76 V 220 H 69.120003 Z m 0,20.95999 H 109.76 v 1.28002 H 69.120003 Z"
                 style="fill:#a5a5a5;fill-opacity:1;fill-rule:evenodd;stroke:none"
                 id="path376" />
            </g>
            <g
               id="g378">
              <path
                 d="M 69.120003,260 H 112.32 v 2.56 H 69.120003 Z m 0,21.60001 H 109.76 V 282.88 H 69.120003 Z m 0,20.95999 H 109.76 v 1.28 H 69.120003 Z m 0,20.95999 H 109.76 v 1.28 H 69.120003 Z m 0,20.32001 H 112.32 v 2.55999 H 69.120003 Z m 0,21.6 H 109.76 v 1.28 H 69.120003 Z m 0,20.95999 H 109.76 v 1.28 H 69.120003 Z m 0,20.96 H 109.76 v 1.28002 H 69.120003 Z"
                 style="fill:#000000;fill-opacity:1;fill-rule:evenodd;stroke:none"
                 id="path380" />
            </g>
            <g
               id="g382">
              <path
                 d="m 66.559998,71.360001 h 2.560005 V 430.23999 H 66.559998 Z M 109.76,73.919998 h 2.56 V 430.23999 h -2.56 z"
                 style="fill:#000000;fill-opacity:1;fill-rule:evenodd;stroke:none"
                 id="path384" />
            </g>
            <g
               id="g386">
              <path
                 d="M 153.60001,94.879997 H 154.88 V 115.2 h -1.27999 z m 43.19999,0 h 1.28 V 408.16 h -1.28 z m 43.2,0 h 1.28 V 408.16 H 240 Z m 43.20001,0 h 1.28 V 408.16 h -1.28 z m 43.19998,0 h 1.28 V 408.16 h -1.28 z m 43.20002,0 H 370.88 V 408.16 h -1.27999 z m 43.19998,0 h 1.28 V 408.16 h -1.28 z m 43.20001,0 h 1.28 V 408.16 H 456 Z m 43.20001,0 h 1.28 V 408.16 h -1.28 z m 43.20001,0 h 1.27997 V 408.16 h -1.27997 z m 43.19996,0 H 586.88 V 408.16 h -1.28002 z m 43.20001,0 h 1.28003 V 408.16 h -1.28003 z m 43.20001,0 h 1.28003 V 408.16 H 672 Z m 43.20001,0 h 1.27997 V 408.16 h -1.27997 z m 43.20001,0 h 1.27997 V 427.67999 h -1.27997 z"
                 style="fill:#d9d9d9;fill-opacity:1;fill-rule:evenodd;stroke:none"
                 id="path388" />
            </g>
            <g
               id="g390">
              <path
                 d="m 800.96002,73.919998 h 2.56 V 430.23999 h -2.56 z"
                 style="fill:#000000;fill-opacity:1;fill-rule:nonzero;stroke:none"
                 id="path392" />
            </g>
            <g
               id="g394">
              <path
                 d="M 69.120003,71.360001 H 803.52002 v 2.559997 H 69.120003 Z m 0,20.959999 H 803.52002 v 2.559997 H 69.120003 Z"
                 style="fill:#000000;fill-opacity:1;fill-rule:evenodd;stroke:none"
                 id="path396" />
            </g>
            <g
               id="g398">
              <path
                 d="m 154.88,113.92 h 646.08002 v 1.28 H 154.88 Z m -0.64,20.96 h 646.72002 v 1.28 H 154.24 Z m 0,20.96 h 646.72002 v 1.27999 H 154.24 Z m 0,20.96 h 646.72002 v 1.28 H 154.24 Z m 0,20.95999 h 646.72002 v 1.28 H 154.24 Z m 0,20.96001 H 800.96002 V 220 H 154.24 Z m 0,20.95999 h 646.72002 v 1.28002 H 154.24 Z m 0,20.96002 h 646.72002 v 1.28 H 154.24 Z m 0,20.96 H 800.96002 V 282.88 H 154.24 Z m 0,20.95999 h 646.72002 v 1.28 H 154.24 Z m 0,20.95999 h 646.72002 v 1.28 H 154.24 Z m 0,20.96002 h 646.72002 v 1.28 H 154.24 Z m 0,20.95999 h 646.72002 v 1.28 H 154.24 Z m 0,20.95999 h 646.72002 v 1.28 H 154.24 Z m 605.43999,20.96 h 41.28003 v 1.28002 h -41.28003 z"
                 style="fill:#d9d9d9;fill-opacity:1;fill-rule:evenodd;stroke:none"
                 id="path400" />
            </g>
            <g
               id="g402">
              <path
                 d="M 69.120003,427.67999 H 803.52002 v 2.56 H 69.120003 Z"
                 style="fill:#000000;fill-opacity:1;fill-rule:nonzero;stroke:none"
                 id="path404" />
            </g>
          </g>
        </g>
      </g>
    </g>
  </g>
</svg>
